<svg  height="16px" width="16px" id="Camada_1" data-name="Camada 1" xmlns="http://www.w3.org/2000/svg" viewBox="0 0 16 16"><defs><style>.cls-1{fill:#f9f9f9;}.cls-2{fill:#76acdc;}.cls-10,.cls-11,.cls-12,.cls-13,.cls-14,.cls-15,.cls-16,.cls-17,.cls-18,.cls-19,.cls-2,.cls-20,.cls-21,.cls-22,.cls-23,.cls-24,.cls-25,.cls-26,.cls-27,.cls-28,.cls-29,.cls-3,.cls-30,.cls-31,.cls-4,.cls-5,.cls-6,.cls-7,.cls-8,.cls-9{fill-rule:evenodd;}.cls-3{fill:#6cc2a2;}.cls-4{fill:#fbb52f;}.cls-5{fill:#b3d553;}.cls-6{fill:#efe129;}.cls-7{fill:#a38dc3;}.cls-8{fill:#f3745d;}.cls-9{fill:#62579c;}.cls-10{fill:#3b74a7;}.cls-11{fill:#38965d;}.cls-12{fill:#ef4801;}.cls-13{fill:#75b019;}.cls-14{fill:#528000;}.cls-15{fill:#c1dc73;}.cls-16{fill:#d980a1;}.cls-17{fill:#d5170a;}.cls-18{fill:#ad3d64;}.cls-19{fill:#4a1235;}.cls-20{fill:#232160;}.cls-21{fill:#aa81b8;}.cls-22{fill:#57afc9;}.cls-23{fill:#0c4120;}.cls-24{fill:#0a4f09;}.cls-25{fill:#a5d27d;}.cls-26{fill:#ed7985;}.cls-27{fill:#ed5e88;}.cls-28{fill:#7e0804;}.cls-29{fill:#ab0100;}.cls-30{fill:#a24e00;}.cls-31{fill:#dcac08;}</style></defs><rect class="cls-1" x="1" y="1" width="14" height="14" rx="3.2503"/><path class="cls-2" d="M12.4394,9.8439a2,2,0,0,1,.2915.6367,1.8555,1.8555,0,0,1-1.3839,2.2636,1.833,1.833,0,0,1-1.4664-.2705l-.0365-.023a.2622.2622,0,0,0-.0327.1141,1.8617,1.8617,0,0,1-3.64-.0651c-.0035-.0176-.0081-.0351-.0122-.0527l.0031-.0145a.0977.0977,0,0,0,.0453-.0278,5.3176,5.3176,0,0,0,.5237-.4986c.3857-.3894.7838-.7665,1.1573-1.168a.89.89,0,0,1,.1161-.1391,1.6822,1.6822,0,0,0,.19.2369q.71.7133,1.4241,1.4227a.8435.8435,0,0,0,.2123.1685,1.1537,1.1537,0,0,0,.03-.2789q.004-.9826,0-1.9654a1.55,1.55,0,0,0-.0377-.3408c.0915.0088.183.0249.2745.0252q1.0564.0032,2.1128.0008a.9727.9727,0,0,0,.2133-.0269l.0154.0029"/><path class="cls-3" d="M12.4394,9.8439a2,2,0,0,1,.2915.6367,1.8555,1.8555,0,0,1-1.3839,2.2636,1.833,1.833,0,0,1-1.4664-.2705l-.0365-.023a.2622.2622,0,0,0-.0327.1141l.0195-.1377a1.1587,1.1587,0,0,0,.03-.2789q.004-.9826,0-1.9654a1.55,1.55,0,0,0-.0377-.3408c.0915.0088.183.025.2745.0252q1.0563.0033,2.1128.0008a.9607.9607,0,0,0,.2133-.0269l.0154.0029"/><path class="cls-4" d="M6.1608,3.5747a1.81,1.81,0,0,1,.5526-1.04,1.8638,1.8638,0,0,1,3.112.981l.0133.0594c.0085.0938.0242.1876.0244.2814q.0032,1.0016,0,2.003a1.3479,1.3479,0,0,1-.0373.32l-.0311.0141a1.8447,1.8447,0,0,0-.9724.551,1.7814,1.7814,0,0,0-.4621.9083l-.0074.0052c-.0715.01-.1351.0341-.2066.0443a1.1587,1.1587,0,0,1-.2753-.0179c.0606-.0837.128-.1634.1807-.2519a1.8351,1.8351,0,0,0,.257-1.1588,1.7925,1.7925,0,0,0-.5156-1.0972c-.4669-.475-.9407-.9434-1.4127-1.4134a1.0486,1.0486,0,0,0-.2158-.1723l-.0033-.0162"/><path class="cls-5" d="M12.4394,9.8439,12.424,9.841l-.0088-.0179a1.6686,1.6686,0,0,0-.2241-.253c-.5374-.5156-1.03-1.0767-1.6-1.56.073-.0738.1639-.1256.2375-.1994q.6984-.7011,1.4-1.4a1.6975,1.6975,0,0,0,.1958-.2318l.0174-.0018a1.7878,1.7878,0,0,1,.9337.4444,1.8078,1.8078,0,0,1,.6069,1.133,1.858,1.858,0,0,1-1.4567,2.073c-.0287.006-.0576.0107-.0864.0161"/><path class="cls-6" d="M12.4413,6.1788l-.017.0019a1.0188,1.0188,0,0,0-.2268-.0274c-.6954,0-1.3908-.001-2.0853.0009-.0963,0-.1927.0161-.2881.0246a1.3489,1.3489,0,0,0,.0377-.3194q.0028-1.002,0-2.0031c0-.0935-.016-.1871-.0245-.2806a1.9309,1.9309,0,0,1,.822-.3269,1.862,1.862,0,0,1,2.1,1.5231,1.8352,1.8352,0,0,1-.2938,1.3606c-.0095.0142-.0255.0264-.0246.0472"/><path class="cls-7" d="M3.5577,9.8439l.0163-.0034a.6814.6814,0,0,0,.2.0265c.8-.0137,1.6008.036,2.4-.0272a2.3,2.3,0,0,0-.0379.3883c0,.5734.0007,1.1467,0,1.72a2.9387,2.9387,0,0,0,.03.4844l-.003.0145a1.9291,1.9291,0,0,1-.756.3155,1.8235,1.8235,0,0,1-1.5571-.4289,1.7889,1.7889,0,0,1-.6255-1.1882A1.8348,1.8348,0,0,1,3.5316,9.89c.01-.0148.0175-.031.0262-.0465"/><path class="cls-8" d="M3.5738,6.1816l-.0184-.0023c-.0316-.0542-.0628-.1086-.0946-.1626a1.7853,1.7853,0,0,1-.25-.93A1.8536,1.8536,0,0,1,4.759,3.2548a1.8308,1.8308,0,0,1,1.356.2919c.015.01.0307.0186.0461.0278l.0034.0162a2.51,2.51,0,0,0-.0272.261q-.0033,1.0053.0006,2.01a1.1435,1.1435,0,0,0,.0394.32c-.0917-.0093-.1833-.0264-.275-.0267q-1.0575-.0033-2.1149-.0006a.8738.8738,0,0,0-.2135.0271"/><path class="cls-9" d="M6.1637,12.4319a2.95,2.95,0,0,1-.03-.4844c.0013-.5734,0-1.1468.0006-1.72a2.28,2.28,0,0,1,.0379-.3883l.0037-.0121a.2431.2431,0,0,0,.0665-.008,1.8411,1.8411,0,0,0,1.2024-.9106,1.487,1.487,0,0,0,.1925-.5426l.0078-.0043.2137-.0292.0119.0044c.033.0642.0945.1084.1227.176a.1417.1417,0,0,1-.01.0248,1.83,1.83,0,0,0-.2339,1.507,1.4585,1.4585,0,0,0,.2541.5392l.0018.0148a.89.89,0,0,0-.1161.139c-.3735.4015-.7716.7787-1.1573,1.168a5.2943,5.2943,0,0,1-.5237.4986.0961.0961,0,0,1-.0453.0278"/><path class="cls-10" d="M8.0061,10.6l-.0018-.0148.0166-.0294a1.8436,1.8436,0,0,0,.1577-1.7062,2.792,2.792,0,0,0-.1733-.3349c.0275-.0682.0905-.1119.123-.1768l.01-.0038a1.5338,1.5338,0,0,0,.2145.0281l.0065.0054a.1521.1521,0,0,0,0,.027,1.8681,1.8681,0,0,0,1.45,1.4378l.0153.0105a1.5512,1.5512,0,0,1,.0377.3409q.0041.9826,0,1.9654a1.1592,1.1592,0,0,1-.03.2789.8435.8435,0,0,1-.2123-.1685q-.7148-.7086-1.4241-1.4227a1.6822,1.6822,0,0,1-.19-.2369"/><path class="cls-11" d="M9.8241,9.842l-.0154-.0105c.017-.0118.0105-.0265.0069-.0423A1.8627,1.8627,0,0,0,8.3589,8.3667l-.0064-.0055a1.294,1.294,0,0,0-.0356-.2029l.0107-.0219.1672-.127.016.0018c.05.0306.0981.0641.15.0914a1.8461,1.8461,0,0,0,1.2025.1912A1.7413,1.7413,0,0,0,10.57,8.01h.0219c.569.4832,1.0621,1.0443,1.6,1.56a1.674,1.674,0,0,1,.2241.253l.0088.0179a.9668.9668,0,0,1-.2133.027q-1.0564.0009-2.1128-.0008c-.0915,0-.183-.0165-.2745-.0253"/><path class="cls-12" d="M6.1769,6.1816a1.1436,1.1436,0,0,1-.0395-.32q-.0048-1.0051-.0005-2.01a2.5374,2.5374,0,0,1,.0271-.261,1.0459,1.0459,0,0,1,.2158.1723c.4721.47.9459.9384,1.4127,1.4135a1.7914,1.7914,0,0,1,.5156,1.0972,1.8343,1.8343,0,0,1-.257,1.1587c-.0526.0885-.12.1682-.1806.2519l-.0113.0043L7.642,7.6591c-.0035-.0244-.0054-.0492-.0108-.0732a1.8052,1.8052,0,0,0-.4-.7875,1.8345,1.8345,0,0,0-.6384-.4792,2.7367,2.7367,0,0,0-.4158-.1376"/><path class="cls-13" d="M8.5116,8.0118,8.4957,8.01a1.2836,1.2836,0,0,0-.1609-.1235,1.0861,1.0861,0,0,1,.0172-.23L8.36,7.6515A1.8615,1.8615,0,0,0,9.8111,6.2372c.0047-.0211.0146-.04-.0171-.0451l.0311-.014c.096-.0086.1919-.0244.288-.0247q1.0431-.0032,2.0862-.0008a1.0143,1.0143,0,0,1,.2268.0273,1.6986,1.6986,0,0,1-.1958.2318q-.7009.699-1.4,1.4c-.0735.0738-.1645.1257-.2375.1995l-.0219,0a.9729.9729,0,0,0-.2264-.1331A1.8429,1.8429,0,0,0,9.192,7.7294a1.6469,1.6469,0,0,0-.68.2824"/><path class="cls-14" d="M9.7853,6.1759c.0321.0057.0473-.0085.0416.0133a1.7933,1.7933,0,0,1-.6312,1.0592,1.8333,1.8333,0,0,1-.8362.4034,1.7712,1.7712,0,0,1,.4611-.907,1.9781,1.9781,0,0,1,.9893-.601"/><path class="cls-15" d="M8.3246,7.888a2.6532,2.6532,0,0,1-.1871-.2l.2145-.03a1.0944,1.0944,0,0,0-.018.23l-.0094.0009"/><path class="cls-16" d="M3.5577,9.8439a1.8587,1.8587,0,0,1-.2388-3.6128,1.3266,1.3266,0,0,1,.2372-.0537l.0184.0024a1.0924,1.0924,0,0,0,.1482.1832q.7323.7321,1.4649,1.4639a1.1507,1.1507,0,0,0,.2171.1707c-.0025.0288-.0257.0394-.0453.0548a1.8856,1.8856,0,0,0-.1721.1409q-.7389.7353-1.4749,1.4735a.9907.9907,0,0,0-.1384.1737l-.0162.0033"/><path class="cls-17" d="M6.1769,6.1807a2.724,2.724,0,0,1,.4159.1387A1.8688,1.8688,0,0,1,7.6312,7.5966c.0055.0241.0073.0491.0108.0737a.5943.5943,0,0,1,.0174.2417.4259.4259,0,0,0-.1565.1256l-.0241.0006c-.01-.0476-.0556-.0558-.0884-.0756a1.9039,1.9039,0,0,0-.7954-.2513.6.6,0,0,0-.2827,0c-.0975.0161-.1957.0276-.2924.05a2.0019,2.0019,0,0,0-.5874.2529l-.0288-.0006a1.1577,1.1577,0,0,1-.2172-.1721q-.733-.7372-1.4648-1.4759a1.1,1.1,0,0,1-.1482-.1848.8645.8645,0,0,1,.2135-.0274q1.0575-.0014,2.1149.0007c.0917,0,.1833.0175.275.0269"/><path class="cls-18" d="M7.478,8.0231l.0241,0a1.6383,1.6383,0,0,1,.1622.1131.9232.9232,0,0,1-.0192.2273l-.0078.0043a1.8333,1.8333,0,0,0-1.0211.5795,1.7727,1.7727,0,0,0-.44.8817l-.0037.0121c-.8.0632-1.6.0135-2.4.0272a.6818.6818,0,0,1-.2-.0265.9937.9937,0,0,1,.1384-.1736q.7371-.7372,1.475-1.4736a1.887,1.887,0,0,1,.1722-.1409c.0195-.0153.0428-.026.0452-.0548l.0288.0006c-.0043.02.01.0276.0237.0361a1.8686,1.8686,0,0,0,2.0226-.012"/><path class="cls-19" d="M6.1769,9.8278a1.68,1.68,0,0,1,.4308-.9014,1.862,1.862,0,0,1,1.0394-.565,1.5269,1.5269,0,0,1-.2022.548A1.6991,1.6991,0,0,1,6.1722,9.84"/><path class="cls-20" d="M8.0052,8.5145a2.7227,2.7227,0,0,1,.1729.3345A1.8547,1.8547,0,0,1,8.05,10.5639c-.0057.0094-.04.04-.0453.0491a1.59,1.59,0,0,1-.2542-.5669A1.83,1.83,0,0,1,7.9844,8.539c.0047-.0075.0057-.017.01-.0245h.0113Z"/><path class="cls-21" d="M7.6452,8.3633a.92.92,0,0,0,.0189-.2268L7.67,8.1346h.0047a2.0169,2.0169,0,0,1,.1842.1985l-.2135.03"/><path class="cls-22" d="M8.0052,8.5145H7.9939c-.0284-.0681-.09-.1125-.1229-.1767a.8648.8648,0,0,1,.257,0c-.0321.0652-.0945.1086-.1228.1767"/><path class="cls-23" d="M8.36,8.3671A1.9012,1.9012,0,0,1,9.8259,9.7853c.0038.0161.0152.0473-.0018.0595A1.9034,1.9034,0,0,1,8.36,8.3945a.132.132,0,0,1,0-.0274"/><path class="cls-22" d="M8.1384,8.334a.6241.6241,0,0,1,.1795-.1748,1.3281,1.3281,0,0,1,.035.2032,1.6161,1.6161,0,0,1-.2145-.0284"/><path class="cls-24" d="M8.5135,7.9929A1.6022,1.6022,0,0,1,9.191,7.73a1.8615,1.8615,0,0,1,1.1593.1474,1.0645,1.0645,0,0,1,.2438.1323,1.92,1.92,0,0,1-1.9332.0936q-.0849-.0449-.1672-.0945"/><path class="cls-25" d="M8.3246,7.888l.0094-.0009a1.29,1.29,0,0,1,.1606.1228l-.1663.1276a.8062.8062,0,0,1-.0047-.2495"/><path class="cls-26" d="M7.6594,7.8975a.8371.8371,0,0,0-.0284-.2816c.0718.01.155.0624.2277.0718a.8109.8109,0,0,1-.1455.1559c-.0179.017-.0368.0312-.0378.0586l-.016-.0038"/><path class="cls-27" d="M7.6594,7.8975l.0151.0047a1.0622,1.0622,0,0,1,0,.2324H7.67l-.0048.001c-.0585-.0312-.1-.0879-.1625-.1134a.4286.4286,0,0,1,.1569-.1238"/><path class="cls-28" d="M7.4808,8.042a1.847,1.847,0,0,1-.8466.292,1.6886,1.6886,0,0,1-1.2378-.3335,1.8751,1.8751,0,0,1,2.1042.0226"/><path class="cls-29" d="M7.615,7.6291c.0311-.0056.0217-.0236.017-.0453a1.8274,1.8274,0,0,0-1.457-1.405,1.752,1.752,0,0,0,.4677.8995,1.8411,1.8411,0,0,0,.9723.5508"/><path class="cls-30" d="M8.0392,5.4616a2.7164,2.7164,0,0,1,.1729.3222A1.7154,1.7154,0,0,1,8.0543,7.426l-.016.0283a1.38,1.38,0,0,1-.2542-.5187,1.7125,1.7125,0,0,1,.2305-1.4532l.0133-.0208h.0113Z"/><path class="cls-31" d="M9.8269,3.554a3.0754,3.0754,0,0,1,.0293.492c-.0012.5823,0,1.1647-.0006,1.7471a.9143.9143,0,0,1-.0285.3842,2.1205,2.1205,0,0,0-1.2682.9553,1.4133,1.4133,0,0,0-.2.5224l-.0013.0012c-.0705.0131-.06.0123-.086.0182a.5669.5669,0,0,0-.1262.0311,1.4653,1.4653,0,0,1-.1131-.2506,1.7735,1.7735,0,0,0,.2243-1.4761,1.9824,1.9824,0,0,0-.2331-.5127c.02-.04.031-.0537.1016-.1783A8.5363,8.5363,0,0,1,9.2638,4.0886a5.3266,5.3266,0,0,1,.5182-.5064c.0141-.0111.0258-.0257.0449-.0282"/></svg>