<svg height="16px" width="16px" id="svg6" xmlns="http://www.w3.org/2000/svg" viewBox="0 0 16 16"><defs><style>.cls-1{fill:#20143c;}.cls-2{fill:#fdd53f;}.cls-3{fill:#ff750e;}.cls-4{fill:#934bed;}.cls-5{fill:#ffba36;}.cls-6{fill:#ff5237;}.cls-7{fill:#ff7f1f;}</style></defs><g id="layer1"><path id="rect51" class="cls-1" d="M4.09,1h7.8065A3.1124,3.1124,0,0,1,15,4.1032V11.91A3.09,3.09,0,0,1,11.91,15H4.1032A3.1124,3.1124,0,0,1,1,11.8968V4.09A3.0993,3.0993,0,0,1,4.09,1Z"/><path class="cls-2" d="M9.761,2.4c.3358,1.3259,1.3643,1.7449,2.4911,3.188.9542,1.2222.79,1.8808,1.1425,3.1068L10.7431,10.977,7.748,7.9023C7.7345,5.8582,7.2439,4.1107,9.761,2.4Z"/><path class="cls-3" d="M4.3478,5.68c.389-.386,1.0242-1.2848,1.7821-1.534a3.4062,3.4062,0,0,0,.1918,1.9852L5.1035,5.8153Z"/><circle class="cls-4" cx="8" cy="8" r="2.8"/><path class="cls-5" d="M9.0469,6.1057q-.06.0006-.1194.0043a2.3135,2.3135,0,0,1,1.33,2.0911,2.3393,2.3393,0,0,1-2.1941,2.3374,2.2879,2.2879,0,0,0,.9831.1941,2.3135,2.3135,0,1,0,0-4.6269Z"/><path id="ellipse841" class="cls-6" d="M4.4674,6.0139C3.1574,7.027,2.4,6.2941,2.4,8.0654a5.6,5.6,0,0,0,11.2,0,5.4782,5.4782,0,0,0-1.4364-3.7012c.02-.0008-.0835-.08-.1369-.0605a4.0894,4.0894,0,0,1,.5882,2.1193c0,2.269-1.2619,4.5168-3.5309,4.5168-1.4574.0708-3.3988-.8609-3.6976-1.7328a1.2675,1.2675,0,0,1,.38-1.5439,2.5815,2.5815,0,0,1,1.3573-.38c.6-.3947.3082-.35.2794-.4694a2.3674,2.3674,0,0,1-.9745-.4811c-.4048-.3186-.5928-.4394-1.7725-.45C4.4337,5.4527,4.4893,6.5235,4.4674,6.0139Z"/><path class="cls-7" d="M4.5519,3.7043A5.5043,5.5043,0,0,0,2.4065,7.84C2.4782,10.4128,4.827,12.2,7.72,12.2c2.9381,0,5.18-1.8511,5.18-4.48a4.3257,4.3257,0,0,0-.4846-1.9846,4.12,4.12,0,0,1,.06.6874,3.9917,3.9917,0,0,1-3.9687,4.1087A2.7982,2.7982,0,0,1,5.6539,8.9253c-.1928-.5625-.13-.8.3948-1.1495a2.5873,2.5873,0,0,1,1.3432-.3243c.6-.3948.6463-.5466.6174-.6661a3.7118,3.7118,0,0,1-1.1578-.6081,2.96,2.96,0,0,0-2.0961-.9717A3.6807,3.6807,0,0,1,4.5519,3.7043Z"/><path class="cls-5" d="M4.902,6.6016a1.8822,1.8822,0,0,0-1.0369.2963,1.4722,1.4722,0,0,0,1.2954.881,2.4646,2.4646,0,0,0,1.71,2.4271l0-.0007-.0006,0q-.0834-.0414-.1624-.0869L6.6932,10.11q-.0441-.0258-.0868-.0528L6.59,10.0461q-.0427-.0274-.0838-.056l-.0129-.009-.0467-.0336q-.0453-.0333-.0884-.068l-.02-.0165c-.02-.0167-.04-.0336-.06-.0507l-.0285-.0251-.04-.037-.0381-.0363-.03-.03-.0432-.0447-.0008-.0009L6.07,9.61l-.0355-.04-.0271-.0318L5.973,9.4953l-.0192-.0242c-.0143-.0185-.0281-.0372-.0417-.0559l-.016-.0225q-.0211-.03-.041-.06l-.0106-.0167c-.0132-.0205-.026-.0412-.0382-.062L5.7986,9.24c-.0123-.0213-.0241-.0428-.0355-.0643l-.0064-.012q-.0177-.0343-.0338-.069l-.0067-.0145c-.0106-.0231-.0207-.0463-.03-.07L5.6818,9q-.0149-.0372-.0278-.0746c-.1928-.5624-.13-.8.3945-1.1495a2.589,2.589,0,0,1,1.3433-.3241c.6-.3947.6462-.547.6173-.6665-1.0124.8025-1.9581.1184-2.8485-.1545a1.383,1.383,0,0,0-.2586-.0291Z"/></g></svg>