<svg height="16px" width="16px" id="svg2781" xmlns="http://www.w3.org/2000/svg" viewBox="0 0 16 16"><defs><style>.cls-1{fill:#c3ccd0;}.cls-2{fill:#030000;}.cls-3{fill:#1a211f;}.cls-4{fill:#a1fbe6;isolation:isolate;opacity:0.35;}.cls-5{fill:#c1fdee;}</style></defs><g id="layer1"><rect id="rect849" class="cls-1" x="1" y="1" width="14" height="14" rx="3.1042"/><rect id="rect2807-7" class="cls-2" x="1.6674" y="1.6743" width="12.6652" height="12.6514" rx="2.6794"/><rect id="rect2809-5" class="cls-3" x="2.3976" y="2.405" width="11.2051" height="11.2051" rx="1.9486"/><path id="path2811-3" class="cls-4" d="M4.6393,2.405v.746H3.0507V2.8984c-.0246.0219-.05.0434-.0732.0666v.186H2.8129c-.0187.0238-.0367.0481-.0543.0728h.2189v1.589h-.58V4.886h.58V6.4746h-.58v.0732h.58v1.589h-.58V8.21h.58v1.589h-.58v.0732h.58v1.589h-.58v.0728h.58V13.05c.0235.0232.0486.0447.0732.0666V11.5336H4.6393v1.589H3.0579c.0285.0252.0575.05.0875.0733H4.6393V13.61h.0732v-.4139h1.589V13.61h.0728v-.4139h1.589V13.61h.0732v-.4139h1.589V13.61h.0728v-.4139h1.589V13.61h.0733v-.4139h1.4938c.03-.0235.059-.0481.0875-.0733H11.3606v-1.589h1.5885v1.5828c.0246-.0219.05-.0434.0732-.0666V11.5336h.58v-.0728h-.58V9.8718h.58V9.7986h-.58V8.21h.58V8.1368h-.58V6.5478h.58V6.4746h-.58V4.886h.58V4.8128h-.58V3.2238h.2189c-.0176-.0247-.0356-.049-.0543-.0728h-.1646V2.965c-.0235-.0232-.0486-.0447-.0732-.0666V3.151H11.3606V2.405h-.0733v.746H9.6983V2.405H9.6255v.746H8.0365V2.405H7.9633v.746H6.3743V2.405H6.3015v.746H4.7125V2.405H4.6393Zm-1.5886.8188H4.6393v1.589H3.0507Zm1.6618,0h1.589v1.589H4.7125Zm1.6618,0h1.589v1.589H6.3743Zm1.6623,0h1.589v1.589H8.0366Zm1.6618,0h1.5889v1.589H9.6984Zm1.6622,0h1.5885v1.589H11.3606ZM3.0508,4.886H4.6393V6.4746H3.0508Zm1.6618,0h1.589V6.4746H4.7126Zm1.6618,0h1.589V6.4746H6.3744Zm1.6622,0h1.589V6.4746H8.0366Zm1.6618,0h1.589V6.4746H9.6984Zm1.6623,0h1.5885V6.4746H11.3607Zm-8.31,1.6618H4.6394v1.589H3.0509Zm1.6618,0h1.589v1.589H4.7127Zm1.6618,0h1.589v1.589H6.3745Zm1.6622,0h1.589v1.589H8.0367Zm1.6618,0h1.589v1.589H9.6985Zm1.6623,0h1.5885v1.589H11.3608ZM3.051,8.21H4.64v1.589H3.051Zm1.6617,0h1.589v1.589H4.7127Zm1.6618,0h1.589v1.589H6.3745Zm1.6623,0h1.589v1.589H8.0368Zm1.6618,0h1.589v1.589H9.6986Zm1.6622,0h1.5886v1.589H11.3608ZM3.051,9.8719H4.64v1.589H3.051Zm1.6618,0h1.589v1.589H4.7128Zm1.6618,0h1.589v1.589H6.3746Zm1.6623,0h1.589v1.589H8.0369Zm1.6618,0h1.5889v1.589H9.6987Zm1.6622,0h1.5885v1.589H11.3609ZM4.7128,11.5337h1.589v1.5889H4.7128Zm1.6618,0h1.589v1.5889H6.3746Zm1.6623,0h1.589v1.5889H8.0369Zm1.6618,0h1.5889v1.5889H9.6987Z"/><path id="path2815-6" class="cls-5" d="M6.803,4.8908c-.0247.0038-.0442.04-.07.117a14.4721,14.4721,0,0,0-.1289,2.365,14.862,14.862,0,0,1-.177,2.1965c-.0851.2507-.2272.1724-.5838-.3221a5.366,5.366,0,0,0-.4614-.5757c-.1212-.1067-.1348-.1074-.2579-.0171a.7687.7687,0,0,0-.2069.3045c-.1094.2973-.2593.4581-.4677.5019a8.2987,8.2987,0,0,1-1.138-.0357l-.9134-.07c0,.0571,0,.1145,0,.1717l.4786.0462c.2869.028.7978.0513,1.1351.0513.7152,0,.8374-.0564.9962-.4586a1.03,1.03,0,0,1,.1484-.284c.1055-.073.2517.0482.5514.4572a3.6134,3.6134,0,0,0,.4363.5162c.1679.1232.3265.0593.41-.1651a12.8137,12.8137,0,0,0,.205-2.3174c.0306-.98.0567-1.2085.1256-1.0837a7.2084,7.2084,0,0,1,.1275,1.3116c.01.1725.055.7754.1,1.34.1508,1.8944.205,2.2325.3492,2.1789a1.7623,1.7623,0,0,0,.1827-.8553,1.72,1.72,0,0,1,.0785-.47c.0838-.2246.1246-.233.6194-.1309.4494.0927.5445.0344.7374-.4515.2592-.6524.2691-.6684.4187-.6879.1166-.0151.1862.0386.4049.3135.803,1.0093.894,1.0494,1.33.5881a1.497,1.497,0,0,1,.3183-.285,1.4606,1.4606,0,0,1,.3173.2564.963.963,0,0,0,.5861.2836.1178.1178,0,0,0,0-.2355c-.2133.0832-.415-.1152-.5243-.2189-.3611-.3452-.4807-.3412-.7845.0281-.3434.4174-.36.4114-1.001-.39-.6587-.8229-.8112-.8124-1.1194.0766a1.9209,1.9209,0,0,1-.2374.4814c-.1148.1353-.1283.1378-.4153.0714-.4345-.1005-.6023-.0874-.7213.0557a.7877.7877,0,0,0-.1327.2278c-.0373.1318-.109.134-.1441.0044a15.35,15.35,0,0,1-.1561-1.5534c-.0371-.6945-.2243-2.9069-.2616-3.0905a.4928.4928,0,0,0-.1014-.22c-.0207-.0193-.0375-.0284-.0523-.0262Z"/></g></svg>