<svg height="16px" width="16px" id="svg6" xmlns="http://www.w3.org/2000/svg" viewBox="0 0 16 16"><defs><style>.cls-1{fill:#ff854d;}.cls-2{fill:#746a53;}.cls-2,.cls-3,.cls-4,.cls-5,.cls-6{fill-rule:evenodd;}.cls-3{fill:#fff;}.cls-4{fill:#252525;}.cls-5{fill:#161616;}.cls-6{fill:#343434;}.cls-7{fill:#ffac38;}.cls-8{fill:#919191;}.cls-9{fill:#242424;}</style></defs><path id="rect51" class="cls-1" d="M4.09,1h7.8065A3.1124,3.1124,0,0,1,15,4.1032V11.91A3.09,3.09,0,0,1,11.91,15H4.1032A3.1124,3.1124,0,0,1,1,11.8968V4.09A3.0993,3.0993,0,0,1,4.09,1Z"/><path class="cls-2" d="M12.44,2.8024a.245.245,0,0,0-.2191.0943.6413.6413,0,0,0-.1116.22,2.8381,2.8381,0,0,1-.9087,1.31A5.79,5.79,0,0,1,7.3623,6a2.6292,2.6292,0,0,1-2.45-1.6738C4.7913,4.0855,4.6,3.6369,4.6,3.9223v.4413L4.5938,6.6478l.0124.03A.82.82,0,0,1,4.6,7.2489,2.52,2.52,0,0,1,2.9245,8.3611L2.8,8.3981l.0237.1313a1.9937,1.9937,0,0,0,.6141.9778,6.5251,6.5251,0,0,0,1.2957.9766,7.7652,7.7652,0,0,0,3.6542,1.1154,3.7965,3.7965,0,0,0,3.387-1.68c.8351-1.251,1.2424-3.6386.9088-6.7481h-.0006a.6369.6369,0,0,0-.0631-.2222.2539.2539,0,0,0-.18-.144Z"/><path class="cls-3" d="M5.8,5.8a1.4419,1.4419,0,0,0-.9594.35A1.3683,1.3683,0,0,0,4.4,7.2a1.3671,1.3671,0,0,0,.44,1.05,1.49,1.49,0,0,0,1.9189,0A1.3674,1.3674,0,0,0,7.2,7.2a1.3686,1.3686,0,0,0-.4408-1.05A1.442,1.442,0,0,0,5.8,5.8Z"/><path class="cls-4" d="M6,6.8a.6159.6159,0,0,0-.41.15.6274.6274,0,0,0,0,.8992.6346.6346,0,0,0,.82,0,.6274.6274,0,0,0,0-.8992A.6159.6159,0,0,0,6,6.8Z"/><path class="cls-5" d="M5.6,9.8779c.5486,0,1.0488.028,1.5024,0a3.5393,3.5393,0,0,0,1.751-.3931,1.0459,1.0459,0,0,1-.1812-.3891,1.82,1.82,0,0,1,.6476.4669c.2207.289-.0777.4671-.1355.8368-.1286-.3247-.209-.4465-.2415-.5756a1.4407,1.4407,0,0,1-1.1778.5756A6.6829,6.6829,0,0,1,5.6,9.8784Z"/><path class="cls-6" d="M3.1931,6.4a1.3586,1.3586,0,0,0-.2083.0147,1.1616,1.1616,0,0,0-.4917.1952c-.5762.4038-.7279,1.3187-.0162,2.2769S4.13,9.9936,4.7065,9.59s.7286-1.3187.0168-2.2768a1.9954,1.9954,0,0,0-1.53-.913Z"/><path class="cls-3" d="M8.2,5.8a1.4419,1.4419,0,0,0-.9594.35A1.3683,1.3683,0,0,0,6.8,7.2a1.3671,1.3671,0,0,0,.44,1.05,1.49,1.49,0,0,0,1.9189,0A1.3674,1.3674,0,0,0,9.6,7.2a1.3686,1.3686,0,0,0-.4408-1.05A1.442,1.442,0,0,0,8.2,5.8Z"/><path class="cls-4" d="M8.4,6.8a.6159.6159,0,0,0-.41.15.6274.6274,0,0,0,0,.8992.6346.6346,0,0,0,.82,0,.6274.6274,0,0,0,0-.8992A.6159.6159,0,0,0,8.4,6.8Z"/><path class="cls-7" d="M11.3829,11.4784l.2417-.4813A14.8413,14.8413,0,0,0,9.0471,9.6719l-.2644.1454A9.3485,9.3485,0,0,0,11.3829,11.4784Z"/><path class="cls-8" d="M11.3913,10.5913l-.126.0829a.8134.8134,0,0,0-.2882.2981,1.0174,1.0174,0,0,0-.1075.5372l.1826-.0312s.9534.2735,1.4048.4174l.0528-.1018.1859-.36-1.3044-.6682Z"/><path class="cls-9" d="M14,13.2c-.3207-1.0418-.4344-1.8691-1.2724-1.7954-.6752.0593-.7225.9854-.0247,1.241C13.3751,12.8918,14,13.2,14,13.2Z"/></svg>