<svg height="16px" width="16px" id="Camada_1" data-name="Camada 1" xmlns="http://www.w3.org/2000/svg" xmlns:xlink="http://www.w3.org/1999/xlink" viewBox="0 0 16 16"><defs><style>.cls-1{fill:#ececec;}.cls-2{fill:#3d3f42;}.cls-3{fill:#5f6367;}.cls-4{fill:url(#Gradiente_sem_nome_5);}.cls-5{fill:#d7d7d5;}.cls-6{fill:url(#Gradiente_sem_nome_8);}.cls-7{fill:url(#Gradiente_sem_nome_11);}.cls-8{fill:url(#Gradiente_sem_nome_14);}.cls-9{fill:url(#Gradiente_sem_nome_17);}.cls-10{fill:#fa9811;}.cls-11{isolation:isolate;opacity:0.5;}</style><linearGradient id="Gradiente_sem_nome_5" x1="-5.4355" y1="84.9148" x2="-5.6486" y2="85.2762" gradientTransform="matrix(3.177, 0, 0, -3.177, 23.5068, 277.4077)" gradientUnits="userSpaceOnUse"><stop offset="0" stop-color="#a7a7a7"/><stop offset="1" stop-color="#dadcd9"/></linearGradient><linearGradient id="Gradiente_sem_nome_8" x1="-7.3971" y1="84.9148" x2="-7.6102" y2="85.2762" gradientTransform="matrix(3.177, 0, 0, -3.177, 31.8668, 277.4077)" xlink:href="#Gradiente_sem_nome_5"/><linearGradient id="Gradiente_sem_nome_11" x1="-7.3973" y1="86.8505" x2="-7.6104" y2="87.2119" gradientTransform="matrix(3.177, 0, 0, -3.177, 31.8668, 285.6577)" xlink:href="#Gradiente_sem_nome_5"/><linearGradient id="Gradiente_sem_nome_14" x1="-5.4476" y1="86.8505" x2="-5.6607" y2="87.2119" gradientTransform="matrix(3.177, 0, 0, -3.177, 23.5578, 285.6577)" xlink:href="#Gradiente_sem_nome_5"/><linearGradient id="Gradiente_sem_nome_17" x1="-9.3674" y1="84.8818" x2="-9.5805" y2="85.2433" gradientTransform="matrix(3.177, 0, 0, -3.177, 40.2629, 277.2677)" gradientUnits="userSpaceOnUse"><stop offset="0" stop-color="#ba782e"/><stop offset="1" stop-color="#e3af5e"/></linearGradient></defs><path class="cls-1" d="M4.3091,1A3.3019,3.3019,0,0,0,1,4.3091v7.3818A3.3019,3.3019,0,0,0,4.3091,15h7.3818A3.3019,3.3019,0,0,0,15,11.6909V4.3091A3.3019,3.3019,0,0,0,11.6909,1Z"/><path class="cls-2" d="M5.7087,2.6649H10.29a1.27,1.27,0,0,1,1.2728,1.2727v7.6363A1.27,1.27,0,0,1,10.29,12.8466H5.7087A1.27,1.27,0,0,1,4.436,11.5739V3.9376A1.27,1.27,0,0,1,5.7087,2.6649Z"/><path class="cls-3" d="M5.7087,3.4288H10.29a.5079.5079,0,0,1,.5091.5091V5.4651a.5079.5079,0,0,1-.5091.5091H5.7087A.508.508,0,0,1,5.2,5.4651V3.9379A.508.508,0,0,1,5.7087,3.4288Z"/><circle class="cls-4" cx="5.8902" cy="7.0412" r="0.7229"/><circle class="cls-5" cx="5.8902" cy="7.0412" r="0.7229"/><circle class="cls-6" cx="8.0181" cy="7.0412" r="0.7229"/><circle class="cls-5" cx="8.0181" cy="7.0412" r="0.7229"/><circle class="cls-7" cx="8.0181" cy="9.143" r="0.7229"/><circle class="cls-5" cx="8.0181" cy="9.143" r="0.7229"/><circle class="cls-8" cx="5.9034" cy="9.143" r="0.7229"/><circle class="cls-5" cx="5.9034" cy="9.143" r="0.7229"/><circle class="cls-9" cx="10.155" cy="7.0066" r="0.7229"/><circle class="cls-10" cx="10.155" cy="7.0066" r="0.7229"/><path class="cls-5" d="M5.9368,10.558h2.092a.74.74,0,0,1,.74.74h0a.74.74,0,0,1-.74.74H5.9368a.74.74,0,0,1-.74-.74h0A.74.74,0,0,1,5.9368,10.558Z"/><path class="cls-11" d="M5.7087,3.4288A.508.508,0,0,0,5.2,3.9379v.1208A.508.508,0,0,1,5.7087,3.55H10.29a.5079.5079,0,0,1,.5091.5091V3.9379a.5079.5079,0,0,0-.5091-.5091Z"/><circle class="cls-10" cx="10.155" cy="9.1415" r="0.7229"/><circle class="cls-10" cx="10.155" cy="9.1415" r="0.7229"/><circle class="cls-10" cx="10.155" cy="11.2786" r="0.7229"/><circle class="cls-10" cx="10.155" cy="11.2786" r="0.7229"/><path class="cls-11" d="M4.436,11.4359v.1382a1.27,1.27,0,0,0,1.2727,1.2727H10.29a1.27,1.27,0,0,0,1.2728-1.2727v-.1382A1.27,1.27,0,0,1,10.29,12.7086H5.7087A1.27,1.27,0,0,1,4.436,11.4359Z"/></svg>